<?xml version="1.0" encoding="utf-8"?>
<!-- Generator: Adobe Illustrator 26.0.3, SVG Export Plug-In . SVG Version: 6.00 Build 0)  -->
<svg version="1.0" id="Laag_1" xmlns="http://www.w3.org/2000/svg" xmlns:xlink="http://www.w3.org/1999/xlink" x="0px" y="0px"
	 viewBox="0 0 175 175" style="enable-background:new 0 0 175 175;" xml:space="preserve">
<style type="text/css">
	.st0{fill:#FFFFFF;}
	.st1{fill:#006633;}
	.st2{fill:#2DAB66;}
</style>
<g id="Laag_88">
</g>
<g id="Laag_87">
</g>
<g id="Laag_86">
</g>
<g id="Laag_85">
</g>
<g id="Laag_84">
</g>
<g id="Laag_83">
</g>
<g id="Laag_82">
</g>
<g id="Laag_81">
</g>
<g id="Laag_80">
</g>
<g id="Laag_79">
</g>
<g id="Laag_78">
</g>
<g id="Laag_77">
</g>
<g id="Laag_76">
</g>
<g id="Laag_75">
</g>
<g id="Laag_74">
</g>
<g id="Laag_73">
</g>
<g id="Laag_72">
</g>
<g id="Laag_71">
</g>
<g id="Laag_70">
</g>
<g id="Laag_69">
</g>
<g id="Laag_68">
</g>
<g id="Laag_67">
</g>
<g id="Laag_66">
</g>
<g id="Laag_65">
</g>
<g id="Laag_64">
</g>
<g id="Laag_63">
</g>
<g id="Laag_62">
</g>
<g id="Laag_61">
</g>
<g id="Laag_60">
</g>
<g id="Laag_59">
</g>
<g id="Laag_58">
</g>
<g id="Laag_57">
</g>
<g id="Laag_56">
</g>
<g id="Laag_55">
</g>
<g id="Laag_54">
</g>
<g id="Laag_53">
</g>
<g id="Laag_47">
</g>
<g id="Laag_46">
</g>
<g id="Laag_45">
</g>
<g id="Laag_42">
</g>
<g id="Laag_41">
</g>
<g id="Laag_40">
</g>
<g id="Laag_39">
</g>
<g id="Laag_38">
</g>
<g id="Laag_37">
</g>
<g id="Laag_36">
</g>
<g id="Laag_35">
</g>
<g id="Laag_34">
</g>
<g id="Laag_33">
</g>
<g id="Laag_32">
</g>
<g id="Laag_31">
</g>
<g id="Laag_30">
</g>
<g id="Laag_29">
</g>
<g id="Laag_28">
</g>
<g id="Laag_27">
</g>
<g id="Laag_26">
</g>
<g id="Laag_25">
</g>
<g id="Laag_24">
</g>
<g id="Laag_23">
</g>
<g id="Laag_22">
</g>
<g id="Laag_21">
</g>
<g id="Laag_20">
</g>
<g id="Laag_19">
</g>
<g id="Laag_18">
</g>
<g id="Laag_17">
</g>
<g id="Laag_16">
</g>
<g id="Laag_15">
</g>
<g id="Laag_14">
</g>
<g id="Laag_13">
</g>
<g id="Laag_12">
</g>
<g id="Laag_11">
</g>
<g id="Laag_10">
</g>
<g id="Laag_9">
</g>
<g id="Laag_8">
</g>
<g id="Laag_7">
</g>
<g id="Laag_6">
	<g>
		<g>
			<circle class="st0" cx="87.5" cy="87.5" r="83.3"/>
			<path class="st1" d="M87.5,175C39.3,175,0,135.7,0,87.5S39.3,0,87.5,0S175,39.3,175,87.5S135.7,175,87.5,175z M87.5,8.3
				C43.8,8.3,8.3,43.8,8.3,87.5s35.5,79.2,79.2,79.2s79.2-35.5,79.2-79.2S131.2,8.3,87.5,8.3z"/>
		</g>
		<g>
			<polygon class="st1" points="95.3,134.5 87.1,103.1 56.3,103.1 48.1,134.5 39.5,132.2 49.4,94.2 94,94.2 103.9,132.2 			"/>
			<path class="st2" d="M87,88.9H71.7V80h8.4l1.1-4.2c2-7.6,2.6-15.4,1.8-23.2H71.7v-8.9h19l0.6,3.8C92.9,57.7,92.4,68,89.8,78
				L87,88.9z"/>
			<path class="st2" d="M71.7,88.9H56.4L53.6,78c-2.6-10-3.1-20.3-1.5-30.6l0.6-3.8h19v8.9H60.4c-0.8,7.8-0.2,15.5,1.8,23.2l1.1,4.2
				h8.4V88.9z"/>
			<rect x="117.8" y="61.3" class="st2" width="8.9" height="50.8"/>
			<rect x="96.9" y="82.2" class="st1" width="50.8" height="8.9"/>
		</g>
	</g>
</g>
<g id="Laag_4">
</g>
</svg>
