<?xml version="1.0" encoding="utf-8"?>
<!-- Generator: Adobe Illustrator 26.0.3, SVG Export Plug-In . SVG Version: 6.00 Build 0)  -->
<svg version="1.0" xmlns="http://www.w3.org/2000/svg" xmlns:xlink="http://www.w3.org/1999/xlink" x="0px" y="0px"
	 viewBox="0 0 175 175" style="enable-background:new 0 0 175 175;" xml:space="preserve">
<style type="text/css">
	.st0{fill:#FFFFFF;}
	.st1{fill:#006633;}
	.st2{fill:#2DAB66;}
</style>
<g id="Laag_1">
	<g id="Laag_88">
	</g>
	<g id="Laag_87">
	</g>
	<g id="Laag_86">
	</g>
	<g id="Laag_85">
	</g>
	<g id="Laag_84">
	</g>
	<g id="Laag_83">
	</g>
	<g id="Laag_82">
	</g>
	<g id="Laag_81">
	</g>
	<g id="Laag_80">
	</g>
	<g id="Laag_79">
	</g>
	<g id="Laag_78">
	</g>
	<g id="Laag_77">
	</g>
	<g id="Laag_76">
	</g>
	<g id="Laag_75">
	</g>
	<g id="Laag_74">
	</g>
	<g id="Laag_73">
	</g>
	<g id="Laag_72">
	</g>
	<g id="Laag_71">
	</g>
	<g id="Laag_70">
	</g>
	<g id="Laag_69">
	</g>
	<g id="Laag_68">
	</g>
	<g id="Laag_67">
	</g>
	<g id="Laag_66">
	</g>
	<g id="Laag_65">
	</g>
	<g id="Laag_64">
	</g>
	<g id="Laag_63">
	</g>
	<g id="Laag_62">
	</g>
	<g id="Laag_61">
	</g>
	<g id="Laag_60">
	</g>
	<g id="Laag_59">
	</g>
	<g id="Laag_58">
	</g>
	<g id="Laag_57">
	</g>
	<g id="Laag_56">
	</g>
	<g id="Laag_55">
	</g>
	<g id="Laag_54">
	</g>
	<g id="Laag_53">
	</g>
	<g id="Laag_52">
	</g>
	<g id="Laag_51">
	</g>
	<g id="Laag_50">
	</g>
	<g id="Laag_49">
	</g>
	<g id="Laag_48">
	</g>
	<g id="Laag_47">
	</g>
	<g id="Laag_46">
	</g>
	<g id="Laag_45">
	</g>
	<g id="Laag_44">
	</g>
	<g id="Laag_43">
	</g>
	<g id="Laag_42">
	</g>
	<g id="Laag_41">
	</g>
	<g id="Laag_40">
	</g>
	<g id="Laag_39">
	</g>
	<g id="Laag_38">
	</g>
	<g id="Laag_37">
	</g>
	<g id="Laag_36">
	</g>
	<g id="Laag_35">
	</g>
	<g id="Laag_34">
	</g>
	<g id="Laag_33">
	</g>
	<g id="Laag_32">
	</g>
	<g id="Laag_31">
	</g>
	<g id="Laag_30">
	</g>
	<g id="Laag_29">
	</g>
	<g id="Laag_28">
	</g>
	<g id="Laag_27">
	</g>
	<g id="Laag_26">
	</g>
	<g id="Laag_25">
	</g>
	<g id="Laag_24">
	</g>
	<g id="Laag_23">
	</g>
	<g id="Laag_22">
	</g>
	<g id="Laag_21">
	</g>
	<g id="Laag_20">
	</g>
	<g id="Laag_19">
	</g>
	<g id="Laag_18">
	</g>
	<g id="Laag_17">
	</g>
	<g id="Laag_16">
	</g>
	<g id="Laag_15">
	</g>
	<g id="Laag_14">
	</g>
	<g id="Laag_13">
	</g>
	<g id="Laag_12">
	</g>
	<g id="Laag_11">
	</g>
	<g id="Laag_10">
	</g>
	<g id="Laag_9">
	</g>
	<g id="Laag_8">
		<g>
			<g>
				<circle class="st0" cx="87.5" cy="87.5" r="83.3"/>
				<path class="st1" d="M87.5,175C39.3,175,0,135.7,0,87.5S39.3,0,87.5,0S175,39.3,175,87.5S135.7,175,87.5,175z M87.5,8.3
					C43.8,8.3,8.3,43.8,8.3,87.5s35.5,79.2,79.2,79.2s79.2-35.5,79.2-79.2S131.2,8.3,87.5,8.3z"/>
			</g>
			<g>
				<path class="st2" d="M61.8,110.5L59,73.9l6.7,0.2c0.1,0,16.2,0.4,26.5-8.8c2.2-1.9,5.9-4.9,11-7.9l6.1,10.4
					c-3.3,1.9-6.5,4.2-9,6.5C91.1,82.5,79.3,85.1,72,85.9l1.8,23.8L61.8,110.5z"/>
				<path class="st2" d="M147.2,79.1c-9.8-12.1-22.1-15.6-36.5-10.6l-3-8.6c17.8-6.2,34.3-1.5,46.5,13.4L147.2,79.1z"/>
				<path class="st2" d="M47.7,143.5l-0.4-9.1c4.5-0.2,12.8-3.4,17.8-5.5l-2-26.4l9-0.7l2.5,32.7l-2.8,1.3
					C70.3,136.6,56.1,143.2,47.7,143.5z"/>
				
					<rect x="113.2" y="94.1" transform="matrix(0.7071 -0.7071 0.7071 0.7071 -49.0219 117.8465)" class="st2" width="9.1" height="47.9"/>
				<path class="st0" d="M78.5,121.3C55,121.3,36,102.3,36,78.8v-9.1h18.1v9.1c0,13.4,10.9,24.4,24.4,24.4s24.4-10.9,24.4-24.4
					c0-5.7-2-11.2-5.6-15.6l-5.8-7l13.9-11.6l5.8,7c6.3,7.6,9.8,17.3,9.8,27.2C121,102.3,101.9,121.3,78.5,121.3z"/>
				<path class="st1" d="M78.5,116.8c-20.9,0-38-17-38-38c0-20.9,17-38,38-38c20.9,0,38,17,38,38C116.5,99.8,99.4,116.8,78.5,116.8z
					 M78.5,49.9c-15.9,0-28.9,13-28.9,28.9c0,15.9,13,28.9,28.9,28.9s28.9-13,28.9-28.9C107.4,62.9,94.4,49.9,78.5,49.9z"/>
			</g>
		</g>
	</g>
	<g id="Laag_7">
	</g>
	<g id="Laag_6">
	</g>
	<g id="Laag_5">
	</g>
	<g id="Laag_4">
	</g>
</g>
<g id="Laag_3">
</g>
</svg>
