<?xml version="1.0" encoding="utf-8"?>
<!-- Generator: Adobe Illustrator 26.0.3, SVG Export Plug-In . SVG Version: 6.00 Build 0)  -->
<svg version="1.0" xmlns="http://www.w3.org/2000/svg" xmlns:xlink="http://www.w3.org/1999/xlink" x="0px" y="0px"
	 viewBox="0 0 175 175" style="enable-background:new 0 0 175 175;" xml:space="preserve">
<style type="text/css">
	.st0{fill:#FFFFFF;}
	.st1{fill:#006633;}
	.st2{fill:#2DAB66;}
</style>
<g id="Laag_1">
	<g id="Laag_88">
	</g>
	<g id="Laag_87">
	</g>
	<g id="Laag_86">
	</g>
	<g id="Laag_85">
	</g>
	<g id="Laag_84">
	</g>
	<g id="Laag_83">
	</g>
	<g id="Laag_82">
	</g>
	<g id="Laag_81">
	</g>
	<g id="Laag_80">
	</g>
	<g id="Laag_79">
	</g>
	<g id="Laag_78">
	</g>
	<g id="Laag_77">
	</g>
	<g id="Laag_76">
	</g>
	<g id="Laag_75">
	</g>
	<g id="Laag_74">
	</g>
	<g id="Laag_73">
	</g>
	<g id="Laag_72">
	</g>
	<g id="Laag_71">
	</g>
	<g id="Laag_70">
	</g>
	<g id="Laag_69">
	</g>
	<g id="Laag_68">
	</g>
	<g id="Laag_67">
	</g>
	<g id="Laag_66">
	</g>
	<g id="Laag_65">
	</g>
	<g id="Laag_64">
	</g>
	<g id="Laag_63">
	</g>
	<g id="Laag_62">
	</g>
	<g id="Laag_61">
	</g>
	<g id="Laag_60">
	</g>
	<g id="Laag_59">
	</g>
	<g id="Laag_58">
	</g>
	<g id="Laag_57">
	</g>
	<g id="Laag_56">
	</g>
	<g id="Laag_55">
	</g>
	<g id="Laag_54">
	</g>
	<g id="Laag_53">
	</g>
	<g id="Laag_52">
	</g>
	<g id="Laag_51">
	</g>
	<g id="Laag_50">
	</g>
	<g id="Laag_49">
	</g>
	<g id="Laag_48">
	</g>
	<g id="Laag_47">
	</g>
	<g id="Laag_46">
	</g>
	<g id="Laag_45">
	</g>
	<g id="Laag_44">
	</g>
	<g id="Laag_43">
	</g>
	<g id="Laag_42">
	</g>
	<g id="Laag_41">
	</g>
	<g id="Laag_40">
	</g>
	<g id="Laag_39">
	</g>
	<g id="Laag_38">
	</g>
	<g id="Laag_37">
	</g>
	<g id="Laag_36">
	</g>
	<g id="Laag_35">
	</g>
	<g id="Laag_34">
	</g>
	<g id="Laag_33">
	</g>
	<g id="Laag_32">
	</g>
	<g id="Laag_31">
	</g>
	<g id="Laag_30">
	</g>
	<g id="Laag_29">
	</g>
	<g id="Laag_28">
	</g>
	<g id="Laag_27">
	</g>
	<g id="Laag_26">
	</g>
	<g id="Laag_25">
	</g>
	<g id="Laag_24">
	</g>
	<g id="Laag_23">
	</g>
	<g id="Laag_22">
	</g>
	<g id="Laag_21">
	</g>
	<g id="Laag_20">
	</g>
	<g id="Laag_19">
	</g>
	<g id="Laag_18">
	</g>
	<g id="Laag_17">
	</g>
	<g id="Laag_16">
	</g>
	<g id="Laag_15">
	</g>
	<g id="Laag_14">
	</g>
	<g id="Laag_13">
	</g>
	<g id="Laag_12">
	</g>
	<g id="Laag_11">
	</g>
	<g id="Laag_10">
	</g>
	<g id="Laag_9">
	</g>
	<g id="Laag_8">
	</g>
	<g id="Laag_7">
		<g>
			<g>
				<circle class="st0" cx="87.5" cy="87.5" r="83.3"/>
				<path class="st1" d="M87.5,175C39.3,175,0,135.7,0,87.5S39.3,0,87.5,0S175,39.3,175,87.5S135.7,175,87.5,175z M87.5,8.3
					C43.8,8.3,8.3,43.8,8.3,87.5s35.5,79.2,79.2,79.2s79.2-35.5,79.2-79.2S131.2,8.3,87.5,8.3z"/>
			</g>
			<g>
				<path class="st1" d="M48.8,71.4l0-1.5H39v1.5c0,32.2,18.2,61.9,46.4,75.6l2.1,1l0-11.3C63.9,124.2,48.9,98.8,48.8,71.4z"/>
				<path class="st1" d="M56.7,71.7c0,21.2,10.8,41.5,28.1,53l2.7,1.8l0-12.2c-13-9.8-20.9-25.8-20.9-42.5l0-15.3l20.9-6.2l0-10.6
					l-30.7,9.1L56.7,71.7z"/>
				<polygon class="st2" points="108.3,56.3 108.3,61.1 118.2,61.1 118.2,48.6 87.4,39.5 87.4,50.1 				"/>
				<path class="st2" d="M124.9,84.1c-3.8,22.5-17.6,42-37.5,52.6l0,11.3l2.1-1c24.5-12,41.3-35.6,45.3-62.9H124.9z"/>
				<path class="st2" d="M116.9,84.1h-10.1c-2.9,11.9-9.7,22.7-19.4,30.1l0,12.2l2.7-1.8C104,115.4,113.6,100.5,116.9,84.1z"/>
				<path class="st2" d="M135.4,79.2c0.1-1.3,0.3-2.6,0.3-3.9l0.3-5.4H87.4l0,9.3H135.4z"/>
			</g>
		</g>
	</g>
	<g id="Laag_6">
	</g>
	<g id="Laag_5">
	</g>
	<g id="Laag_4">
	</g>
</g>
<g id="Laag_3">
</g>
</svg>
