<?xml version="1.0" encoding="utf-8"?>
<!-- Generator: Adobe Illustrator 26.0.3, SVG Export Plug-In . SVG Version: 6.00 Build 0)  -->
<svg version="1.0" id="Laag_1" xmlns="http://www.w3.org/2000/svg" xmlns:xlink="http://www.w3.org/1999/xlink" x="0px" y="0px"
	 viewBox="0 0 270.7 39.4" style="enable-background:new 0 0 270.7 39.4;" xml:space="preserve">
<style type="text/css">
	.st0{fill:#2DAB66;}
	.st1{fill:#FFFFFF;}
</style>
<g id="Laag_123">
</g>
<g id="Laag_122">
</g>
<g id="Laag_121">
</g>
<g id="Laag_120">
</g>
<g id="Laag_119">
</g>
<g id="Laag_118">
</g>
<g id="Laag_117">
</g>
<g id="Laag_116">
</g>
<g id="Laag_115">
</g>
<g id="Laag_114">
</g>
<g id="Laag_113">
</g>
<g id="Laag_112">
</g>
<g id="Laag_111">
</g>
<g id="Laag_110">
</g>
<g id="Laag_109">
</g>
<g id="Laag_108">
</g>
<g id="Laag_107">
</g>
<g id="Laag_106">
</g>
<g id="Laag_105">
</g>
<g id="Laag_104">
</g>
<g id="Laag_103">
</g>
<g id="Laag_102">
</g>
<g id="Laag_101">
</g>
<g id="Laag_100">
</g>
<g id="Laag_99">
	<g>
		<path class="st0" d="M251,39.4H19.7C8.8,39.4,0,30.6,0,19.7v0C0,8.8,8.8,0,19.7,0L251,0c10.9,0,19.7,8.8,19.7,19.7v0
			C270.7,30.6,261.9,39.4,251,39.4z"/>
		<g>
			<path class="st1" d="M78.6,21.6c0.5,0.7,0.8,1.4,0.8,2.3c0,1.2-0.4,2.2-1.3,2.9c-0.9,0.7-2,1.1-3.6,1.1h-6.8V13.2h6.6
				c1.5,0,2.6,0.3,3.5,1C78.6,15,79,15.9,79,17c0,0.9-0.2,1.6-0.7,2.1s-1.1,1-1.8,1.2C77.4,20.6,78.1,21,78.6,21.6z M71.2,19.2h2.3
				c0.6,0,1-0.1,1.3-0.4s0.5-0.6,0.5-1.1c0-0.5-0.2-0.9-0.5-1.1s-0.8-0.4-1.3-0.4h-2.3V19.2z M75.3,24.6c0.3-0.3,0.5-0.7,0.5-1.2
				s-0.2-0.9-0.5-1.2c-0.3-0.3-0.8-0.4-1.4-0.4h-2.6V25h2.6C74.5,25,74.9,24.9,75.3,24.6z"/>
			<path class="st1" d="M92.3,22.9h-8.1c0.1,0.7,0.3,1.3,0.7,1.7c0.4,0.4,0.9,0.6,1.5,0.6c0.9,0,1.5-0.4,1.9-1.1h3.8
				c-0.2,0.8-0.5,1.5-1.1,2.1c-0.5,0.6-1.1,1.1-1.9,1.4c-0.8,0.3-1.6,0.5-2.6,0.5c-1.1,0-2.2-0.2-3-0.7c-0.9-0.5-1.6-1.2-2.1-2.1
				c-0.5-0.9-0.7-2-0.7-3.2c0-1.2,0.2-2.3,0.7-3.2c0.5-0.9,1.2-1.6,2.1-2.1c0.9-0.5,1.9-0.7,3.1-0.7c1.1,0,2.1,0.2,3,0.7
				c0.9,0.5,1.6,1.1,2.1,2c0.5,0.9,0.7,1.9,0.7,3.1C92.4,22.2,92.3,22.6,92.3,22.9z M88.7,20.9c0-0.6-0.2-1.1-0.6-1.5
				c-0.4-0.4-0.9-0.5-1.6-0.5c-0.6,0-1.1,0.2-1.5,0.5c-0.4,0.3-0.7,0.8-0.8,1.5H88.7z"/>
			<path class="st1" d="M101.3,27.9L97.8,23v4.9h-3.6V12.5h3.6V21l3.5-4.7h4.4l-4.8,5.8l4.9,5.8H101.3z"/>
			<path class="st1" d="M107.4,14.5c-0.4-0.4-0.6-0.8-0.6-1.4c0-0.6,0.2-1,0.6-1.4c0.4-0.4,0.9-0.6,1.5-0.6c0.6,0,1.1,0.2,1.5,0.6
				c0.4,0.4,0.6,0.8,0.6,1.4c0,0.5-0.2,1-0.6,1.4c-0.4,0.4-0.9,0.6-1.5,0.6C108.3,15,107.8,14.9,107.4,14.5z M110.7,16.2v11.6h-3.6
				V16.2H110.7z"/>
			<path class="st1" d="M116.8,29.4c0,1.4-0.4,2.5-1.1,3.1c-0.7,0.6-1.7,0.9-3,0.9h-1.4v-3h0.9c0.4,0,0.7-0.1,0.8-0.2
				c0.2-0.2,0.2-0.4,0.2-0.8V16.2h3.6V29.4z M113.5,14.5c-0.4-0.4-0.6-0.8-0.6-1.4c0-0.6,0.2-1,0.6-1.4c0.4-0.4,0.9-0.6,1.5-0.6
				c0.6,0,1.1,0.2,1.5,0.6c0.4,0.4,0.6,0.8,0.6,1.4c0,0.5-0.2,1-0.6,1.4c-0.4,0.4-0.9,0.6-1.5,0.6C114.4,15,113.9,14.9,113.5,14.5z"
				/>
			<path class="st1" d="M126.5,27.9l-3.5-4.9v4.9h-3.6V12.5h3.6V21l3.5-4.7h4.4l-4.8,5.8l4.9,5.8H126.5z"/>
			<path class="st1" d="M141.7,16.6c0.6-0.3,1.3-0.5,2.1-0.5c1,0,1.8,0.2,2.6,0.7c0.8,0.5,1.4,1.2,1.8,2.1s0.7,2,0.7,3.1
				c0,1.2-0.2,2.2-0.7,3.2c-0.5,0.9-1.1,1.6-1.8,2.1c-0.8,0.5-1.6,0.7-2.6,0.7c-0.8,0-1.5-0.2-2.1-0.5c-0.6-0.3-1.1-0.8-1.4-1.3v7.2
				h-3.6V16.2h3.6v1.6C140.6,17.4,141,16.9,141.7,16.6z M144.6,19.9c-0.5-0.5-1.1-0.8-1.8-0.8c-0.7,0-1.3,0.3-1.8,0.8
				c-0.5,0.5-0.7,1.2-0.7,2.1c0,0.9,0.2,1.6,0.7,2.1c0.5,0.5,1.1,0.8,1.8,0.8c0.7,0,1.3-0.3,1.8-0.8c0.5-0.5,0.7-1.2,0.7-2.1
				S145.1,20.5,144.6,19.9z"/>
			<path class="st1" d="M155.9,16.7c0.6-0.4,1.3-0.6,2.1-0.6v3.8h-1c-0.9,0-1.6,0.2-2,0.6s-0.7,1.1-0.7,2v5.4h-3.6V16.2h3.6v1.9
				C154.8,17.5,155.3,17,155.9,16.7z"/>
			<path class="st1" d="M161.9,27.3c-0.9-0.5-1.6-1.2-2.1-2.1c-0.5-0.9-0.8-2-0.8-3.2c0-1.2,0.3-2.2,0.8-3.2
				c0.5-0.9,1.2-1.6,2.2-2.1c0.9-0.5,1.9-0.7,3.1-0.7c1.1,0,2.2,0.2,3.1,0.7c0.9,0.5,1.6,1.2,2.2,2.1c0.5,0.9,0.8,2,0.8,3.2
				c0,1.2-0.3,2.2-0.8,3.2c-0.5,0.9-1.3,1.6-2.2,2.1c-0.9,0.5-2,0.7-3.1,0.7C163.9,28,162.8,27.8,161.9,27.3z M166.7,24.2
				c0.5-0.5,0.7-1.2,0.7-2.1c0-0.9-0.2-1.6-0.7-2.1c-0.5-0.5-1-0.7-1.7-0.7c-0.7,0-1.3,0.2-1.7,0.7c-0.5,0.5-0.7,1.2-0.7,2.2
				c0,0.9,0.2,1.6,0.7,2.1c0.5,0.5,1,0.8,1.7,0.8C165.7,25,166.3,24.7,166.7,24.2z"/>
			<path class="st1" d="M178.8,19.2h-1.9v8.7h-3.6v-8.7H172v-3h1.3v-0.3c0-1.4,0.4-2.5,1.2-3.3c0.8-0.7,2-1.1,3.6-1.1
				c0.3,0,0.5,0,0.6,0v3c-0.7,0-1.2,0.1-1.4,0.3c-0.3,0.2-0.4,0.7-0.4,1.3v0.1h1.9V19.2z"/>
			<path class="st1" d="M180.7,14.5c-0.4-0.4-0.6-0.8-0.6-1.4c0-0.6,0.2-1,0.6-1.4c0.4-0.4,0.9-0.6,1.5-0.6c0.6,0,1.1,0.2,1.5,0.6
				c0.4,0.4,0.6,0.8,0.6,1.4c0,0.5-0.2,1-0.6,1.4c-0.4,0.4-0.9,0.6-1.5,0.6C181.6,15,181.1,14.9,180.7,14.5z M184,16.2v11.6h-3.6
				V16.2H184z"/>
			<path class="st1" d="M197.5,22.9h-8.1c0.1,0.7,0.3,1.3,0.7,1.7s0.9,0.6,1.5,0.6c0.9,0,1.5-0.4,1.9-1.1h3.8
				c-0.2,0.8-0.5,1.5-1.1,2.1c-0.5,0.6-1.1,1.1-1.9,1.4c-0.8,0.3-1.6,0.5-2.6,0.5c-1.1,0-2.2-0.2-3-0.7c-0.9-0.5-1.6-1.2-2.1-2.1
				c-0.5-0.9-0.7-2-0.7-3.2c0-1.2,0.2-2.3,0.7-3.2c0.5-0.9,1.2-1.6,2.1-2.1c0.9-0.5,1.9-0.7,3.1-0.7c1.1,0,2.1,0.2,3,0.7
				s1.6,1.1,2.1,2c0.5,0.9,0.7,1.9,0.7,3.1C197.6,22.2,197.6,22.6,197.5,22.9z M193.9,20.9c0-0.6-0.2-1.1-0.6-1.5
				c-0.4-0.4-0.9-0.5-1.6-0.5c-0.6,0-1.1,0.2-1.5,0.5c-0.4,0.3-0.7,0.8-0.8,1.5H193.9z"/>
			<path class="st1" d="M203,12.5v15.4h-3.6V12.5H203z"/>
		</g>
	</g>
</g>
<g id="Laag_98">
</g>
<g id="Laag_97">
</g>
<g id="Laag_96">
</g>
<g id="Laag_95">
</g>
<g id="Laag_94">
</g>
<g id="Laag_93">
</g>
<g id="Laag_92">
</g>
<g id="Laag_91">
</g>
<g id="Laag_90">
</g>
<g id="Laag_89">
</g>
<g id="Laag_88">
</g>
<g id="Laag_87">
</g>
<g id="Laag_86">
</g>
<g id="Laag_85">
</g>
<g id="Laag_84">
</g>
<g id="Laag_83">
</g>
<g id="Laag_82">
</g>
<g id="Laag_81">
</g>
<g id="Laag_80">
</g>
<g id="Laag_79">
</g>
<g id="Laag_78">
</g>
<g id="Laag_77">
</g>
<g id="Laag_76">
</g>
<g id="Laag_75">
</g>
<g id="Laag_74">
</g>
<g id="Laag_73">
</g>
<g id="Laag_72">
</g>
<g id="Laag_71">
</g>
<g id="Laag_70">
</g>
<g id="Laag_69">
</g>
<g id="Laag_68">
</g>
<g id="Laag_67">
</g>
<g id="Laag_66">
</g>
<g id="Laag_65">
</g>
<g id="Laag_64">
</g>
<g id="Laag_63">
</g>
<g id="Laag_62">
</g>
<g id="Laag_61">
</g>
<g id="Laag_60">
</g>
<g id="Laag_59">
</g>
<g id="Laag_58">
</g>
<g id="Laag_57">
</g>
<g id="Laag_56">
</g>
<g id="Laag_55">
</g>
<g id="Laag_54">
</g>
<g id="Laag_53">
</g>
<g id="Laag_52">
</g>
<g id="Laag_51">
</g>
<g id="Laag_50">
</g>
<g id="Laag_49">
</g>
<g id="Laag_48">
</g>
<g id="Laag_47">
</g>
<g id="Laag_46">
</g>
<g id="Laag_45">
</g>
<g id="Laag_44">
</g>
<g id="Laag_43">
</g>
<g id="Laag_42">
</g>
<g id="Laag_41">
</g>
<g id="Laag_40">
</g>
<g id="Laag_39">
</g>
<g id="Laag_38">
</g>
<g id="Laag_37">
</g>
<g id="Laag_36">
</g>
<g id="Laag_35">
</g>
<g id="Laag_34">
</g>
<g id="Laag_33">
</g>
<g id="Laag_32">
</g>
<g id="Laag_31">
</g>
<g id="Laag_30">
</g>
<g id="Laag_29">
</g>
<g id="Laag_28">
</g>
<g id="Laag_27">
</g>
<g id="Laag_26">
</g>
<g id="Laag_25">
</g>
<g id="Laag_24">
</g>
<g id="Laag_23">
</g>
<g id="Laag_22">
</g>
<g id="Laag_21">
</g>
<g id="Laag_20">
</g>
<g id="Laag_19">
</g>
<g id="Laag_18">
</g>
<g id="Laag_17">
</g>
<g id="Laag_16">
</g>
<g id="Laag_15">
</g>
<g id="Laag_14">
</g>
<g id="Laag_13">
</g>
<g id="Laag_12">
</g>
<g id="Laag_11">
</g>
<g id="Laag_10">
</g>
<g id="Laag_9">
</g>
<g id="Laag_8">
</g>
<g id="Laag_7">
</g>
<g id="Laag_6">
</g>
<g id="Laag_5">
</g>
<g id="Laag_4">
</g>
<g id="Laag_3">
</g>
<g id="Laag_2">
</g>
</svg>
