<?xml version="1.0" encoding="utf-8"?>
<!-- Generator: Adobe Illustrator 26.0.3, SVG Export Plug-In . SVG Version: 6.00 Build 0)  -->
<svg version="1.0" id="Laag_1" xmlns="http://www.w3.org/2000/svg" xmlns:xlink="http://www.w3.org/1999/xlink" x="0px" y="0px"
	 viewBox="0 0 270.7 39.4" style="enable-background:new 0 0 270.7 39.4;" xml:space="preserve">
<style type="text/css">
	.st0{fill:#D50074;}
	.st1{fill:#FFFFFF;}
</style>
<g id="Laag_123">
</g>
<g id="Laag_122">
</g>
<g id="Laag_121">
</g>
<g id="Laag_120">
</g>
<g id="Laag_119">
</g>
<g id="Laag_118">
</g>
<g id="Laag_117">
</g>
<g id="Laag_116">
</g>
<g id="Laag_115">
</g>
<g id="Laag_114">
</g>
<g id="Laag_113">
</g>
<g id="Laag_112">
</g>
<g id="Laag_111">
</g>
<g id="Laag_110">
</g>
<g id="Laag_109">
</g>
<g id="Laag_108">
</g>
<g id="Laag_107">
</g>
<g id="Laag_106">
</g>
<g id="Laag_105">
</g>
<g id="Laag_104">
</g>
<g id="Laag_103">
</g>
<g id="Laag_102">
</g>
<g id="Laag_101">
</g>
<g id="Laag_100">
	<g>
		<path class="st0" d="M251,39.4H19.7C8.8,39.4,0,30.6,0,19.7v0C0,8.8,8.8,0,19.7,0L251,0c10.9,0,19.7,8.8,19.7,19.7v0
			C270.7,30.6,261.9,39.4,251,39.4z"/>
		<g>
			<path class="st1" d="M35.9,13.2l-5.2,14.6h-4.5L21,13.2h3.8l3.6,11l3.6-11H35.9z"/>
			<path class="st1" d="M39.6,27.3c-0.9-0.5-1.6-1.2-2.1-2.1c-0.5-0.9-0.8-2-0.8-3.2c0-1.2,0.3-2.2,0.8-3.2s1.2-1.6,2.2-2.1
				c0.9-0.5,1.9-0.7,3.1-0.7s2.2,0.2,3.1,0.7c0.9,0.5,1.6,1.2,2.2,2.1s0.8,2,0.8,3.2c0,1.2-0.3,2.2-0.8,3.2
				c-0.5,0.9-1.3,1.6-2.2,2.1c-0.9,0.5-2,0.7-3.1,0.7S40.5,27.8,39.6,27.3z M44.4,24.2c0.5-0.5,0.7-1.2,0.7-2.1
				c0-0.9-0.2-1.6-0.7-2.1c-0.5-0.5-1-0.7-1.7-0.7c-0.7,0-1.3,0.2-1.7,0.7c-0.5,0.5-0.7,1.2-0.7,2.2c0,0.9,0.2,1.6,0.7,2.1
				c0.5,0.5,1,0.8,1.7,0.8S43.9,24.7,44.4,24.2z"/>
			<path class="st1" d="M61.5,22.9h-8.1c0.1,0.7,0.3,1.3,0.7,1.7s0.9,0.6,1.5,0.6c0.9,0,1.5-0.4,1.9-1.1h3.8
				c-0.2,0.8-0.5,1.5-1.1,2.1c-0.5,0.6-1.1,1.1-1.9,1.4c-0.8,0.3-1.6,0.5-2.6,0.5c-1.1,0-2.2-0.2-3-0.7c-0.9-0.5-1.6-1.2-2.1-2.1
				c-0.5-0.9-0.7-2-0.7-3.2c0-1.2,0.2-2.3,0.7-3.2c0.5-0.9,1.2-1.6,2.1-2.1c0.9-0.5,1.9-0.7,3.1-0.7c1.1,0,2.1,0.2,3,0.7
				s1.6,1.1,2.1,2c0.5,0.9,0.7,1.9,0.7,3.1C61.6,22.2,61.5,22.6,61.5,22.9z M57.9,20.9c0-0.6-0.2-1.1-0.6-1.5
				c-0.4-0.4-0.9-0.5-1.6-0.5c-0.6,0-1.1,0.2-1.5,0.5c-0.4,0.3-0.7,0.8-0.8,1.5H57.9z"/>
			<path class="st1" d="M70,16.6c0.6,0.3,1.1,0.8,1.4,1.3v-1.6H75v11.6c0,1.1-0.2,2-0.6,2.9s-1.1,1.6-1.9,2.1
				c-0.9,0.5-1.9,0.8-3.2,0.8c-1.7,0-3.1-0.4-4.2-1.2c-1.1-0.8-1.7-1.9-1.8-3.3h3.5c0.1,0.4,0.4,0.8,0.8,1.1
				c0.4,0.3,0.9,0.4,1.5,0.4c0.7,0,1.3-0.2,1.8-0.6c0.4-0.4,0.7-1.1,0.7-2v-1.6c-0.3,0.5-0.8,1-1.4,1.3c-0.6,0.3-1.3,0.5-2.1,0.5
				c-1,0-1.8-0.2-2.6-0.7c-0.8-0.5-1.4-1.2-1.8-2.1c-0.5-0.9-0.7-2-0.7-3.2c0-1.2,0.2-2.2,0.7-3.1c0.5-0.9,1.1-1.6,1.8-2.1
				c0.8-0.5,1.6-0.7,2.6-0.7C68.7,16.1,69.4,16.2,70,16.6z M70.7,20c-0.5-0.5-1.1-0.8-1.8-0.8c-0.7,0-1.3,0.3-1.8,0.8
				c-0.5,0.5-0.7,1.2-0.7,2.1s0.2,1.6,0.7,2.1c0.5,0.5,1.1,0.8,1.8,0.8c0.7,0,1.3-0.3,1.8-0.8c0.5-0.5,0.7-1.2,0.7-2.1
				C71.4,21.2,71.2,20.5,70.7,20z"/>
			<path class="st1" d="M88.5,24.8v3h-1.8c-1.3,0-2.3-0.3-3-0.9c-0.7-0.6-1.1-1.7-1.1-3.1v-4.6h-1.4v-3h1.4v-2.8h3.6v2.8h2.3v3h-2.3
				v4.7c0,0.3,0.1,0.6,0.2,0.7c0.2,0.2,0.4,0.2,0.8,0.2H88.5z"/>
			<path class="st1" d="M92.7,27.3c-0.9-0.5-1.6-1.2-2.1-2.1c-0.5-0.9-0.8-2-0.8-3.2c0-1.2,0.3-2.2,0.8-3.2c0.5-0.9,1.2-1.6,2.2-2.1
				c0.9-0.5,1.9-0.7,3.1-0.7c1.1,0,2.2,0.2,3.1,0.7c0.9,0.5,1.6,1.2,2.2,2.1c0.5,0.9,0.8,2,0.8,3.2c0,1.2-0.3,2.2-0.8,3.2
				c-0.5,0.9-1.3,1.6-2.2,2.1c-0.9,0.5-2,0.7-3.1,0.7C94.6,28,93.6,27.8,92.7,27.3z M97.5,24.2c0.5-0.5,0.7-1.2,0.7-2.1
				c0-0.9-0.2-1.6-0.7-2.1c-0.5-0.5-1-0.7-1.7-0.7c-0.7,0-1.3,0.2-1.7,0.7c-0.5,0.5-0.7,1.2-0.7,2.2c0,0.9,0.2,1.6,0.7,2.1
				c0.5,0.5,1,0.8,1.7,0.8C96.4,25,97,24.7,97.5,24.2z"/>
			<path class="st1" d="M114.6,22.9h-8.1c0.1,0.7,0.3,1.3,0.7,1.7c0.4,0.4,0.9,0.6,1.5,0.6c0.9,0,1.5-0.4,1.9-1.1h3.8
				c-0.2,0.8-0.5,1.5-1.1,2.1c-0.5,0.6-1.1,1.1-1.9,1.4c-0.8,0.3-1.6,0.5-2.6,0.5c-1.1,0-2.2-0.2-3-0.7c-0.9-0.5-1.6-1.2-2.1-2.1
				c-0.5-0.9-0.7-2-0.7-3.2c0-1.2,0.2-2.3,0.7-3.2c0.5-0.9,1.2-1.6,2.1-2.1c0.9-0.5,1.9-0.7,3.1-0.7c1.1,0,2.1,0.2,3,0.7
				c0.9,0.5,1.6,1.1,2.1,2c0.5,0.9,0.7,1.9,0.7,3.1C114.7,22.2,114.6,22.6,114.6,22.9z M111,20.9c0-0.6-0.2-1.1-0.6-1.5
				c-0.4-0.4-0.9-0.5-1.6-0.5c-0.6,0-1.1,0.2-1.5,0.5c-0.4,0.3-0.7,0.8-0.8,1.5H111z"/>
			<path class="st1" d="M120.9,18.9c0.5-0.9,1.1-1.6,1.8-2.1c0.8-0.5,1.6-0.7,2.6-0.7c0.8,0,1.5,0.2,2.2,0.5
				c0.6,0.3,1.1,0.8,1.4,1.3v-1.6h3.6v11.6H129v-1.6c-0.3,0.5-0.8,1-1.4,1.3c-0.6,0.3-1.3,0.5-2.2,0.5c-0.9,0-1.8-0.2-2.6-0.7
				c-0.8-0.5-1.4-1.2-1.8-2.1c-0.5-0.9-0.7-2-0.7-3.2C120.2,20.8,120.5,19.8,120.9,18.9z M128.2,20c-0.5-0.5-1.1-0.8-1.8-0.8
				s-1.3,0.3-1.8,0.8c-0.5,0.5-0.7,1.2-0.7,2.1s0.2,1.6,0.7,2.1s1.1,0.8,1.8,0.8s1.3-0.3,1.8-0.8c0.5-0.5,0.7-1.2,0.7-2.1
				C129,21.2,128.7,20.5,128.2,20z"/>
			<path class="st1" d="M135.1,18.9c0.5-0.9,1.1-1.6,1.8-2.1c0.8-0.5,1.6-0.7,2.6-0.7c0.8,0,1.5,0.2,2.2,0.5
				c0.6,0.3,1.1,0.8,1.4,1.3v-1.6h3.6v11.6h-3.6v-1.6c-0.3,0.5-0.8,1-1.4,1.3c-0.6,0.3-1.3,0.5-2.2,0.5c-0.9,0-1.8-0.2-2.6-0.7
				c-0.8-0.5-1.4-1.2-1.8-2.1c-0.5-0.9-0.7-2-0.7-3.2C134.4,20.8,134.6,19.8,135.1,18.9z M142.4,20c-0.5-0.5-1.1-0.8-1.8-0.8
				s-1.3,0.3-1.8,0.8c-0.5,0.5-0.7,1.2-0.7,2.1s0.2,1.6,0.7,2.1c0.5,0.5,1.1,0.8,1.8,0.8s1.3-0.3,1.8-0.8c0.5-0.5,0.7-1.2,0.7-2.1
				C143.1,21.2,142.8,20.5,142.4,20z"/>
			<path class="st1" d="M159.6,17.4c0.8,0.9,1.2,2.1,1.2,3.6v6.8h-3.5v-6.3c0-0.8-0.2-1.4-0.6-1.8c-0.4-0.4-0.9-0.6-1.6-0.6
				c-0.7,0-1.2,0.2-1.6,0.6c-0.4,0.4-0.6,1-0.6,1.8v6.3h-3.6V16.2h3.6v1.5c0.4-0.5,0.8-0.9,1.5-1.2c0.6-0.3,1.3-0.4,2.1-0.4
				C157.7,16.1,158.8,16.6,159.6,17.4z"/>
			<path class="st1" d="M169.7,27.5c-0.8-0.3-1.4-0.8-1.9-1.4c-0.5-0.6-0.7-1.3-0.8-2h3.5c0,0.4,0.2,0.7,0.6,1
				c0.3,0.2,0.7,0.4,1.2,0.4c0.4,0,0.8-0.1,1-0.3c0.2-0.2,0.4-0.4,0.4-0.7c0-0.3-0.2-0.6-0.5-0.7c-0.3-0.2-0.9-0.3-1.7-0.5
				c-0.8-0.2-1.5-0.4-2.1-0.6c-0.6-0.2-1-0.6-1.4-1c-0.4-0.5-0.6-1.1-0.6-1.9c0-0.7,0.2-1.3,0.6-1.8c0.4-0.5,0.9-1,1.6-1.3
				c0.7-0.3,1.6-0.5,2.6-0.5c1.5,0,2.6,0.4,3.4,1.1c0.8,0.7,1.3,1.7,1.4,2.9h-3.3c-0.1-0.4-0.2-0.7-0.5-1c-0.3-0.2-0.7-0.4-1.2-0.4
				c-0.4,0-0.7,0.1-1,0.2s-0.3,0.4-0.3,0.7c0,0.3,0.2,0.6,0.5,0.8c0.4,0.2,0.9,0.3,1.7,0.5c0.9,0.2,1.6,0.4,2.1,0.7
				c0.5,0.2,1,0.6,1.4,1s0.6,1.1,0.6,1.9c0,0.7-0.2,1.3-0.6,1.8c-0.4,0.5-0.9,1-1.6,1.3c-0.7,0.3-1.5,0.5-2.5,0.5
				C171.4,28,170.5,27.9,169.7,27.5z"/>
			<path class="st1" d="M190.2,22.9h-8.1c0.1,0.7,0.3,1.3,0.7,1.7c0.4,0.4,0.9,0.6,1.5,0.6c0.9,0,1.5-0.4,1.9-1.1h3.8
				c-0.2,0.8-0.5,1.5-1.1,2.1c-0.5,0.6-1.1,1.1-1.9,1.4c-0.8,0.3-1.6,0.5-2.6,0.5c-1.1,0-2.2-0.2-3-0.7c-0.9-0.5-1.6-1.2-2.1-2.1
				c-0.5-0.9-0.7-2-0.7-3.2c0-1.2,0.2-2.3,0.7-3.2c0.5-0.9,1.2-1.6,2.1-2.1c0.9-0.5,1.9-0.7,3.1-0.7c1.1,0,2.1,0.2,3,0.7
				c0.9,0.5,1.6,1.1,2.1,2c0.5,0.9,0.7,1.9,0.7,3.1C190.3,22.2,190.2,22.6,190.2,22.9z M186.6,20.9c0-0.6-0.2-1.1-0.6-1.5
				c-0.4-0.4-0.9-0.5-1.6-0.5c-0.6,0-1.1,0.2-1.5,0.5c-0.4,0.3-0.7,0.8-0.8,1.5H186.6z"/>
			<path class="st1" d="M195.7,12.5v15.4h-3.6V12.5H195.7z"/>
			<path class="st1" d="M209.2,22.9h-8.1c0.1,0.7,0.3,1.3,0.7,1.7s0.9,0.6,1.5,0.6c0.9,0,1.5-0.4,1.9-1.1h3.8
				c-0.2,0.8-0.5,1.5-1.1,2.1c-0.5,0.6-1.1,1.1-1.9,1.4c-0.8,0.3-1.6,0.5-2.6,0.5c-1.1,0-2.2-0.2-3-0.7c-0.9-0.5-1.6-1.2-2.1-2.1
				c-0.5-0.9-0.7-2-0.7-3.2c0-1.2,0.2-2.3,0.7-3.2c0.5-0.9,1.2-1.6,2.1-2.1c0.9-0.5,1.9-0.7,3.1-0.7c1.1,0,2.1,0.2,3,0.7
				s1.6,1.1,2.1,2c0.5,0.9,0.7,1.9,0.7,3.1C209.2,22.2,209.2,22.6,209.2,22.9z M205.6,20.9c0-0.6-0.2-1.1-0.6-1.5
				c-0.4-0.4-0.9-0.5-1.6-0.5c-0.6,0-1.1,0.2-1.5,0.5c-0.4,0.3-0.7,0.8-0.8,1.5H205.6z"/>
			<path class="st1" d="M211.1,18.9c0.5-0.9,1.2-1.6,2.1-2.1c0.9-0.5,1.9-0.7,3-0.7c1.5,0,2.7,0.4,3.7,1.1c1,0.8,1.6,1.8,1.9,3.2
				H218c-0.3-0.9-0.9-1.3-1.9-1.3c-0.7,0-1.2,0.3-1.6,0.8c-0.4,0.5-0.6,1.2-0.6,2.2c0,0.9,0.2,1.7,0.6,2.2c0.4,0.5,0.9,0.8,1.6,0.8
				c0.9,0,1.5-0.4,1.9-1.3h3.8c-0.3,1.4-1,2.4-1.9,3.2c-1,0.8-2.2,1.2-3.6,1.2c-1.1,0-2.1-0.2-3-0.7c-0.9-0.5-1.6-1.2-2.1-2.1
				c-0.5-0.9-0.7-2-0.7-3.2C210.4,20.9,210.6,19.8,211.1,18.9z"/>
			<path class="st1" d="M230.2,24.8v3h-1.8c-1.3,0-2.3-0.3-3-0.9c-0.7-0.6-1.1-1.7-1.1-3.1v-4.6h-1.4v-3h1.4v-2.8h3.6v2.8h2.3v3
				h-2.3v4.7c0,0.3,0.1,0.6,0.2,0.7c0.2,0.2,0.4,0.2,0.8,0.2H230.2z"/>
			<path class="st1" d="M232.4,14.5c-0.4-0.4-0.6-0.8-0.6-1.4c0-0.6,0.2-1,0.6-1.4c0.4-0.4,0.9-0.6,1.5-0.6c0.6,0,1.1,0.2,1.5,0.6
				c0.4,0.4,0.6,0.8,0.6,1.4c0,0.5-0.2,1-0.6,1.4c-0.4,0.4-0.9,0.6-1.5,0.6C233.3,15,232.8,14.9,232.4,14.5z M235.7,16.2v11.6h-3.6
				V16.2H235.7z"/>
			<path class="st1" d="M249.2,22.9h-8.1c0.1,0.7,0.3,1.3,0.7,1.7s0.9,0.6,1.5,0.6c0.9,0,1.5-0.4,1.9-1.1h3.8
				c-0.2,0.8-0.5,1.5-1.1,2.1c-0.5,0.6-1.1,1.1-1.9,1.4c-0.8,0.3-1.6,0.5-2.6,0.5c-1.1,0-2.2-0.2-3-0.7c-0.9-0.5-1.6-1.2-2.1-2.1
				c-0.5-0.9-0.7-2-0.7-3.2c0-1.2,0.2-2.3,0.7-3.2c0.5-0.9,1.2-1.6,2.1-2.1c0.9-0.5,1.9-0.7,3.1-0.7c1.1,0,2.1,0.2,3,0.7
				s1.6,1.1,2.1,2c0.5,0.9,0.7,1.9,0.7,3.1C249.3,22.2,249.2,22.6,249.2,22.9z M245.6,20.9c0-0.6-0.2-1.1-0.6-1.5
				c-0.4-0.4-0.9-0.5-1.6-0.5c-0.6,0-1.1,0.2-1.5,0.5c-0.4,0.3-0.7,0.8-0.8,1.5H245.6z"/>
		</g>
	</g>
</g>
<g id="Laag_99">
</g>
<g id="Laag_98">
</g>
<g id="Laag_97">
</g>
<g id="Laag_96">
</g>
<g id="Laag_95">
</g>
<g id="Laag_94">
</g>
<g id="Laag_93">
</g>
<g id="Laag_92">
</g>
<g id="Laag_91">
</g>
<g id="Laag_90">
</g>
<g id="Laag_89">
</g>
<g id="Laag_88">
</g>
<g id="Laag_87">
</g>
<g id="Laag_86">
</g>
<g id="Laag_85">
</g>
<g id="Laag_84">
</g>
<g id="Laag_83">
</g>
<g id="Laag_82">
</g>
<g id="Laag_81">
</g>
<g id="Laag_80">
</g>
<g id="Laag_79">
</g>
<g id="Laag_78">
</g>
<g id="Laag_77">
</g>
<g id="Laag_76">
</g>
<g id="Laag_75">
</g>
<g id="Laag_74">
</g>
<g id="Laag_73">
</g>
<g id="Laag_72">
</g>
<g id="Laag_71">
</g>
<g id="Laag_70">
</g>
<g id="Laag_69">
</g>
<g id="Laag_68">
</g>
<g id="Laag_67">
</g>
<g id="Laag_66">
</g>
<g id="Laag_65">
</g>
<g id="Laag_64">
</g>
<g id="Laag_63">
</g>
<g id="Laag_62">
</g>
<g id="Laag_61">
</g>
<g id="Laag_60">
</g>
<g id="Laag_59">
</g>
<g id="Laag_58">
</g>
<g id="Laag_57">
</g>
<g id="Laag_56">
</g>
<g id="Laag_55">
</g>
<g id="Laag_54">
</g>
<g id="Laag_53">
</g>
<g id="Laag_52">
</g>
<g id="Laag_51">
</g>
<g id="Laag_50">
</g>
<g id="Laag_49">
</g>
<g id="Laag_48">
</g>
<g id="Laag_47">
</g>
<g id="Laag_46">
</g>
<g id="Laag_45">
</g>
<g id="Laag_44">
</g>
<g id="Laag_43">
</g>
<g id="Laag_42">
</g>
<g id="Laag_41">
</g>
<g id="Laag_40">
</g>
<g id="Laag_39">
</g>
<g id="Laag_38">
</g>
<g id="Laag_37">
</g>
<g id="Laag_36">
</g>
<g id="Laag_35">
</g>
<g id="Laag_34">
</g>
<g id="Laag_33">
</g>
<g id="Laag_32">
</g>
<g id="Laag_31">
</g>
<g id="Laag_30">
</g>
<g id="Laag_29">
</g>
<g id="Laag_28">
</g>
<g id="Laag_27">
</g>
<g id="Laag_26">
</g>
<g id="Laag_25">
</g>
<g id="Laag_24">
</g>
<g id="Laag_23">
</g>
<g id="Laag_22">
</g>
<g id="Laag_21">
</g>
<g id="Laag_20">
</g>
<g id="Laag_19">
</g>
<g id="Laag_18">
</g>
<g id="Laag_17">
</g>
<g id="Laag_16">
</g>
<g id="Laag_15">
</g>
<g id="Laag_14">
</g>
<g id="Laag_13">
</g>
<g id="Laag_12">
</g>
<g id="Laag_11">
</g>
<g id="Laag_10">
</g>
<g id="Laag_9">
</g>
<g id="Laag_8">
</g>
<g id="Laag_7">
</g>
<g id="Laag_6">
</g>
<g id="Laag_5">
</g>
<g id="Laag_4">
</g>
<g id="Laag_3">
</g>
<g id="Laag_2">
</g>
</svg>
