<?xml version="1.0" encoding="utf-8"?>
<!-- Generator: Adobe Illustrator 26.0.3, SVG Export Plug-In . SVG Version: 6.00 Build 0)  -->
<svg version="1.0" id="Laag_1" xmlns="http://www.w3.org/2000/svg" xmlns:xlink="http://www.w3.org/1999/xlink" x="0px" y="0px"
	 viewBox="0 0 270.7 39.4" style="enable-background:new 0 0 270.7 39.4;" xml:space="preserve">
<style type="text/css">
	.st0{fill:#2DAB66;}
	.st1{fill:#FFFFFF;}
</style>
<g id="Laag_1_00000076601638332950348110000010979916336623604148_">
	<g id="Laag_76">
		<g>
			<path class="st0" d="M251,39.4H19.7C8.8,39.4,0,30.6,0,19.7l0,0C0,8.8,8.8,0,19.7,0H251c10.9,0,19.7,8.8,19.7,19.7l0,0
				C270.7,30.6,261.9,39.4,251,39.4z"/>
			<g>
				<path class="st1" d="M35.1,21.6c0.5,0.7,0.8,1.4,0.8,2.3c0,1.2-0.4,2.2-1.3,2.9s-2,1.1-3.6,1.1h-6.8V13.2h6.6
					c1.5,0,2.6,0.3,3.5,1c0.8,0.7,1.3,1.6,1.3,2.8c0,0.9-0.2,1.6-0.7,2.1s-1.1,1-1.8,1.2C33.9,20.6,34.6,21,35.1,21.6z M27.8,19.2
					h2.3c0.6,0,1-0.1,1.3-0.4s0.5-0.6,0.5-1.1s-0.2-0.9-0.5-1.1s-0.8-0.4-1.3-0.4h-2.3V19.2z M31.8,24.6c0.3-0.3,0.5-0.7,0.5-1.2
					s-0.2-0.9-0.5-1.2c-0.3-0.3-0.8-0.4-1.4-0.4h-2.6V25h2.6C31,25,31.5,24.9,31.8,24.6z"/>
				<path class="st1" d="M41.5,16.1v3h4.8v2.7h-4.8V25h5.4v2.9h-9V13.2h9v2.9H41.5z"/>
				<path class="st1" d="M57.7,27.9l-4.9-6.5v6.5h-3.6V13.2h3.6v6.4l4.9-6.4h4.2l-5.7,7.2l5.9,7.5C62.1,27.9,57.7,27.9,57.7,27.9z"
					/>
				<path class="st1" d="M67.3,13.2v14.6h-3.6V13.2H67.3z"/>
				<path class="st1" d="M79,13.2v10c0,1.5-0.4,2.7-1.3,3.6s-2,1.2-3.5,1.2s-2.8-0.4-3.7-1.3s-1.4-2.1-1.4-3.7h3.5
					c0,0.6,0.1,1.1,0.4,1.4c0.2,0.3,0.6,0.5,1.1,0.5c0.4,0,0.8-0.1,1-0.4s0.4-0.7,0.4-1.2v-10H79V13.2z"/>
				<path class="st1" d="M90.4,27.9l-4.9-6.5v6.5h-3.6V13.2h3.6v6.4l4.9-6.4h4.2l-5.7,7.2l5.9,7.5C94.8,27.9,90.4,27.9,90.4,27.9z"
					/>
				<path class="st1" d="M110.4,14.2c1.2,0.6,2,1.5,2.7,2.6c0.6,1.1,0.9,2.4,0.9,3.8s-0.3,2.7-0.9,3.8c-0.6,1.1-1.5,2-2.7,2.6
					s-2.5,0.9-4,0.9h-5.5V13.2h5.5C107.9,13.2,109.2,13.6,110.4,14.2z M109.2,23.7c0.7-0.7,1.1-1.8,1.1-3.1s-0.4-2.4-1.1-3.1
					s-1.8-1.1-3.1-1.1h-1.7v8.5h1.7C107.4,24.8,108.5,24.4,109.2,23.7z"/>
				<path class="st1" d="M119.5,16.1v3h4.8v2.7h-4.8V25h5.4v2.9h-9V13.2h9v2.9H119.5z"/>
				<path class="st1" d="M141.2,14.2c1.2,0.6,2,1.5,2.7,2.6s0.9,2.4,0.9,3.8s-0.3,2.7-0.9,3.8c-0.6,1.1-1.5,2-2.7,2.6
					s-2.5,0.9-4,0.9h-5.5V13.2h5.5C138.7,13.2,140,13.6,141.2,14.2z M140.1,23.7c0.8-0.7,1.1-1.8,1.1-3.1s-0.4-2.4-1.1-3.1
					c-0.7-0.8-1.8-1.1-3.1-1.1h-1.7v8.5h1.7C138.3,24.8,139.3,24.4,140.1,23.7z"/>
				<path class="st1" d="M155.9,25.3h-5.5l-0.9,2.6h-3.7l5.3-14.6h4.1l5.3,14.6h-3.8L155.9,25.3z M155,22.5l-1.8-5.4l-1.8,5.4H155z"
					/>
				<path class="st1" d="M172.7,13.2v2.9h-3.9v11.8h-3.6V16.1h-3.9v-2.9C161.3,13.2,172.7,13.2,172.7,13.2z"/>
				<path class="st1" d="M183.6,25.3h-5.5l-0.9,2.6h-3.7l5.3-14.6h4.1l5.3,14.6h-3.8L183.6,25.3z M182.6,22.5l-1.8-5.4l-1.8,5.4
					H182.6z"/>
				<path class="st1" d="M200.7,21.6c0.5,0.7,0.8,1.4,0.8,2.3c0,1.2-0.4,2.2-1.3,2.9c-0.9,0.7-2,1.1-3.6,1.1h-6.8V13.2h6.6
					c1.5,0,2.6,0.3,3.5,1s1.3,1.6,1.3,2.8c0,0.9-0.2,1.6-0.7,2.1s-1.1,1-1.8,1.2C199.5,20.6,200.2,21,200.7,21.6z M193.4,19.2h2.3
					c0.6,0,1-0.1,1.3-0.4s0.5-0.6,0.5-1.1s-0.2-0.9-0.5-1.1c-0.3-0.3-0.8-0.4-1.3-0.4h-2.3V19.2z M197.4,24.6
					c0.3-0.3,0.5-0.7,0.5-1.2s-0.2-0.9-0.5-1.2c-0.3-0.3-0.8-0.4-1.4-0.4h-2.6V25h2.6C196.6,25,197,24.9,197.4,24.6z"/>
				<path class="st1" d="M212.6,25.3h-5.5l-0.9,2.6h-3.7l5.3-14.6h4.1l5.3,14.6h-3.8L212.6,25.3z M211.7,22.5l-1.8-5.4l-1.8,5.4
					H211.7z"/>
				<path class="st1" d="M232,27.9h-3.6l-6-9v9h-3.6V13.2h3.6l6,9.1v-9.1h3.6V27.9z"/>
				<path class="st1" d="M243,27.9l-4.9-6.5v6.5h-3.6V13.2h3.6v6.4l4.9-6.4h4.2l-5.7,7.2l5.9,7.5C247.4,27.9,243,27.9,243,27.9z"/>
			</g>
		</g>
	</g>
</g>
</svg>
