<?xml version="1.0" encoding="utf-8"?>
<!-- Generator: Adobe Illustrator 26.0.3, SVG Export Plug-In . SVG Version: 6.00 Build 0)  -->
<svg version="1.0" id="Laag_1" xmlns="http://www.w3.org/2000/svg" xmlns:xlink="http://www.w3.org/1999/xlink" x="0px" y="0px"
	 viewBox="0 0 270.7 39.4" style="enable-background:new 0 0 270.7 39.4;" xml:space="preserve">
<style type="text/css">
	.st0{fill:#2DAB66;}
	.st1{fill:#FFFFFF;}
</style>
<g id="Laag_68">
	<g>
		<path class="st0" d="M251,39.4H19.7C8.8,39.4,0,30.6,0,19.7l0,0C0,8.8,8.8,0,19.7,0H251c10.9,0,19.7,8.8,19.7,19.7l0,0
			C270.7,30.6,261.9,39.4,251,39.4z"/>
		<g>
			<path class="st1" d="M81.4,25.3h-5.5L75,27.9h-3.7l5.3-14.6h4.1L86,27.9h-3.8L81.4,25.3z M80.5,22.5l-1.8-5.4l-1.8,5.4H80.5z"/>
			<path class="st1" d="M96.7,25.3h-5.5l-0.9,2.6h-3.7l5.3-14.6H96l5.3,14.6h-3.8L96.7,25.3z M95.8,22.5L94,17.2l-1.8,5.4h3.6V22.5z
				"/>
			<path class="st1" d="M116,27.9h-3.6l-6-9v9H103V13.2h3.6l6,9.1v-9.1h3.6v14.7H116z"/>
			<path class="st1" d="M135.2,13.2v14.6h-3.6V19l-3.3,8.8h-2.9l-3.3-8.8v8.8h-3.6V13.2h4.2l4.1,10.1l4.1-10.1
				C130.9,13.2,135.2,13.2,135.2,13.2z"/>
			<path class="st1" d="M141.3,16.1v3h4.8v2.7h-4.8V25h5.4v2.9h-9V13.2h9v2.9H141.3z"/>
			<path class="st1" d="M152.6,25.1h4.7v2.7H149V13.2h3.6V25.1z"/>
			<path class="st1" d="M168.5,14.2c1.2,0.6,2,1.5,2.7,2.6c0.6,1.1,0.9,2.4,0.9,3.8s-0.3,2.7-0.9,3.8c-0.6,1.1-1.5,2-2.7,2.6
				s-2.5,0.9-4,0.9H159V13.2h5.5C166,13.2,167.3,13.6,168.5,14.2z M167.3,23.7c0.8-0.7,1.1-1.8,1.1-3.1s-0.4-2.4-1.1-3.1
				c-0.7-0.7-1.8-1.1-3.1-1.1h-1.7v8.5h1.7C165.5,24.8,166.6,24.4,167.3,23.7z"/>
			<path class="st1" d="M177.6,16.1v3h4.8v2.7h-4.8V25h5.4v2.9h-9V13.2h9v2.9H177.6z"/>
			<path class="st1" d="M198.4,27.9h-3.6l-6-9v9h-3.6V13.2h3.6l6,9.1v-9.1h3.6V27.9z"/>
		</g>
	</g>
</g>
</svg>
