<?xml version="1.0" encoding="utf-8"?>
<!-- Generator: Adobe Illustrator 26.0.3, SVG Export Plug-In . SVG Version: 6.00 Build 0)  -->
<svg version="1.0" id="Laag_1" xmlns="http://www.w3.org/2000/svg" xmlns:xlink="http://www.w3.org/1999/xlink" x="0px" y="0px"
	 viewBox="0 0 373.9 39.4" style="enable-background:new 0 0 373.9 39.4;" xml:space="preserve">
<style type="text/css">
	.st0{fill:#D50074;}
	.st1{fill:#FFFFFF;}
</style>
<g id="Laag_1_00000058565900761641247360000011924698541619942569_">
	<g id="Laag_71">
		<g>
			<path class="st0" d="M354.3,39.4H19.7C8.8,39.4,0,30.6,0,19.7l0,0C0,8.8,8.8,0,19.7,0h334.6C365.2,0,374,8.8,374,19.7l0,0
				C373.9,30.6,365.1,39.4,354.3,39.4z"/>
			<g>
				<path class="st1" d="M44.1,21.6c0.5,0.7,0.8,1.4,0.8,2.3c0,1.2-0.4,2.2-1.3,2.9c-0.9,0.7-2,1.1-3.6,1.1h-6.8V13.2h6.6
					c1.5,0,2.6,0.3,3.5,1c0.8,0.7,1.3,1.6,1.3,2.8c0,0.9-0.2,1.6-0.7,2.1c-0.5,0.6-1.1,1-1.8,1.2C42.9,20.6,43.6,21,44.1,21.6z
					 M36.7,19.2H39c0.6,0,1-0.1,1.3-0.4s0.5-0.6,0.5-1.1s-0.2-0.9-0.5-1.1c-0.3-0.3-0.8-0.4-1.3-0.4h-2.3V19.2z M40.7,24.6
					c0.3-0.3,0.5-0.7,0.5-1.2s-0.2-0.9-0.5-1.2c-0.3-0.3-0.8-0.4-1.4-0.4h-2.6V25h2.6C40,25,40.4,24.9,40.7,24.6z"/>
				<path class="st1" d="M50.5,16.1v3h4.8v2.8h-4.8V25h5.4v2.9h-9V13.2h9v2.9H50.5z"/>
				<path class="st1" d="M66.6,27.9l-4.9-6.5v6.5h-3.6V13.2h3.6v6.4l4.9-6.4h4.2l-5.7,7.2l5.9,7.5C71,27.9,66.6,27.9,66.6,27.9z"/>
				<path class="st1" d="M76.2,13.2v14.6h-3.6V13.2H76.2z"/>
				<path class="st1" d="M88,13.2v10c0,1.5-0.4,2.7-1.3,3.6c-0.9,0.8-2,1.2-3.5,1.2s-2.8-0.4-3.7-1.3c-0.9-0.9-1.4-2.1-1.4-3.7h3.5
					c0,0.6,0.1,1.1,0.4,1.4s0.6,0.5,1.1,0.5c0.4,0,0.8-0.1,1-0.4s0.4-0.7,0.4-1.2v-10H88V13.2z"/>
				<path class="st1" d="M99.3,27.9l-4.9-6.5v6.5h-3.6V13.2h3.6v6.4l4.9-6.4h4.2l-5.7,7.2l5.9,7.5C103.7,27.9,99.3,27.9,99.3,27.9z"
					/>
				<path class="st1" d="M118.9,25.3h-5.5l-0.9,2.6h-3.7l5.3-14.6h4.1l5.3,14.6h-3.8L118.9,25.3z M118,22.5l-1.8-5.4l-1.8,5.4H118z"
					/>
				<path class="st1" d="M128.7,25.1h4.7v2.7h-8.2V13.2h3.6v11.9H128.7z"/>
				<path class="st1" d="M138.6,25.1h4.7v2.7h-8.2V13.2h3.6v11.9H138.6z"/>
				<path class="st1" d="M148.6,16.1v3h4.8v2.8h-4.8V25h5.4v2.9h-9V13.2h9v2.9H148.6z"/>
				<path class="st1" d="M174.4,13.2l-5.2,14.6h-4.5l-5.2-14.6h3.8l3.6,11l3.6-11C170.5,13.2,174.4,13.2,174.4,13.2z"/>
				<path class="st1" d="M179.5,16.1v3h4.8v2.8h-4.8V25h5.4v2.9h-9V13.2h9v2.9H179.5z"/>
				<path class="st1" d="M194.6,27.9l-3-5.5h-0.9v5.5h-3.6V13.2h6c1.2,0,2.1,0.2,2.9,0.6c0.8,0.4,1.4,1,1.8,1.7
					c0.4,0.7,0.6,1.5,0.6,2.3c0,1-0.3,1.8-0.8,2.6c-0.5,0.8-1.4,1.3-2.4,1.6l3.4,5.8h-4V27.9z M190.7,19.8h2.2
					c0.7,0,1.1-0.2,1.5-0.5c0.3-0.3,0.5-0.8,0.5-1.4s-0.2-1-0.5-1.3s-0.8-0.5-1.5-0.5h-2.2V19.8z"/>
				<path class="st1" d="M210.3,14.2c1.2,0.6,2,1.5,2.7,2.6c0.6,1.1,0.9,2.4,0.9,3.8s-0.3,2.7-0.9,3.8c-0.6,1.1-1.5,2-2.7,2.6
					s-2.5,0.9-4,0.9h-5.5V13.2h5.5C207.8,13.2,209.1,13.6,210.3,14.2z M209.1,23.7c0.8-0.7,1.1-1.8,1.1-3.1s-0.4-2.4-1.1-3.1
					c-0.7-0.8-1.8-1.1-3.1-1.1h-1.7v8.5h1.7C207.3,24.8,208.4,24.4,209.1,23.7z"/>
				<path class="st1" d="M219.4,13.2V22c0,0.9,0.2,1.5,0.6,2s1.1,0.7,1.9,0.7s1.5-0.2,1.9-0.7s0.7-1.1,0.7-2v-8.7h3.6V22
					c0,1.3-0.3,2.4-0.8,3.3c-0.6,0.9-1.3,1.6-2.2,2c-0.9,0.5-2,0.7-3.1,0.7c-1.2,0-2.2-0.2-3.1-0.7c-0.9-0.5-1.6-1.1-2.2-2
					c-0.5-0.9-0.8-2-0.8-3.3v-8.7h3.5V13.2z"/>
				<path class="st1" d="M234.1,13.2V22c0,0.9,0.2,1.5,0.6,2s1.1,0.7,1.9,0.7s1.5-0.2,1.9-0.7s0.7-1.1,0.7-2v-8.7h3.6V22
					c0,1.3-0.3,2.4-0.8,3.3c-0.6,0.9-1.3,1.6-2.2,2c-0.9,0.5-2,0.7-3.1,0.7c-1.2,0-2.2-0.2-3.1-0.7c-0.9-0.5-1.6-1.1-2.2-2
					c-0.5-0.9-0.8-2-0.8-3.3v-8.7h3.5V13.2z"/>
				<path class="st1" d="M252.7,27.9l-3-5.5h-0.9v5.5h-3.6V13.2h6c1.2,0,2.1,0.2,2.9,0.6c0.8,0.4,1.4,1,1.8,1.7
					c0.4,0.7,0.6,1.5,0.6,2.3c0,1-0.3,1.8-0.8,2.6c-0.5,0.8-1.4,1.3-2.4,1.6l3.4,5.8h-4V27.9z M248.8,19.8h2.2
					c0.7,0,1.1-0.2,1.5-0.5s0.5-0.8,0.5-1.4s-0.2-1-0.5-1.3s-0.8-0.5-1.5-0.5h-2.2V19.8z"/>
				<path class="st1" d="M262.6,25h6.3v2.9h-10.3v-2.7l6.2-9h-6.2v-2.9h10.3V16L262.6,25z"/>
				<path class="st1" d="M280.3,25.3h-5.5l-0.9,2.6h-3.7l5.3-14.6h4.1l5.3,14.6h-3.8L280.3,25.3z M279.4,22.5l-1.8-5.4l-1.8,5.4
					H279.4z"/>
				<path class="st1" d="M303.1,13.2v14.6h-3.6V19l-3.3,8.8h-2.9L290,19v8.8h-3.6V13.2h4.2l4.1,10.1l4.1-10.1
					C298.8,13.2,303.1,13.2,303.1,13.2z"/>
				<path class="st1" d="M309.3,16.1v3h4.8v2.8h-4.8V25h5.4v2.9h-9V13.2h9v2.9H309.3z"/>
				<path class="st1" d="M324.4,27.9l-3-5.5h-0.9v5.5H317V13.2h6c1.2,0,2.1,0.2,2.9,0.6c0.8,0.4,1.4,1,1.8,1.7
					c0.4,0.7,0.6,1.5,0.6,2.3c0,1-0.3,1.8-0.8,2.6c-0.5,0.8-1.4,1.3-2.4,1.6l3.4,5.8h-4.1V27.9z M320.5,19.8h2.2
					c0.7,0,1.1-0.2,1.5-0.5s0.5-0.8,0.5-1.4s-0.2-1-0.5-1.3s-0.8-0.5-1.5-0.5h-2.2V19.8z"/>
				<path class="st1" d="M333,27.5c-0.8-0.3-1.5-0.9-2-1.5s-0.8-1.5-0.8-2.5h3.8c0.1,0.5,0.2,1,0.6,1.2c0.3,0.3,0.7,0.4,1.2,0.4
					s0.9-0.1,1.2-0.4c0.3-0.2,0.5-0.6,0.5-1s-0.1-0.7-0.4-0.9s-0.5-0.4-0.9-0.6s-0.9-0.3-1.5-0.5c-0.9-0.3-1.7-0.6-2.3-0.9
					c-0.6-0.3-1.1-0.7-1.5-1.3c-0.4-0.6-0.6-1.3-0.6-2.2c0-1.4,0.5-2.4,1.5-3.2s2.3-1.2,3.9-1.2s2.9,0.4,3.9,1.2s1.5,1.8,1.6,3.2
					h-3.9c0-0.5-0.2-0.8-0.5-1.1s-0.7-0.4-1.2-0.4c-0.4,0-0.8,0.1-1,0.3s-0.4,0.6-0.4,1c0,0.5,0.2,0.8,0.7,1.1s1.1,0.5,2.1,0.9
					c0.9,0.3,1.7,0.6,2.3,0.9c0.6,0.3,1.1,0.7,1.5,1.3c0.4,0.6,0.6,1.3,0.6,2.1c0,0.8-0.2,1.6-0.6,2.3c-0.4,0.7-1,1.2-1.8,1.6
					s-1.8,0.6-2.9,0.6C334.8,28,333.8,27.8,333,27.5z"/>
			</g>
		</g>
	</g>
</g>
</svg>
