<?xml version="1.0" encoding="utf-8"?>
<!-- Generator: Adobe Illustrator 26.0.3, SVG Export Plug-In . SVG Version: 6.00 Build 0)  -->
<svg version="1.0" id="Laag_1" xmlns="http://www.w3.org/2000/svg" xmlns:xlink="http://www.w3.org/1999/xlink" x="0px" y="0px"
	 viewBox="0 0 270.7 39.4" style="enable-background:new 0 0 270.7 39.4;" xml:space="preserve">
<style type="text/css">
	.st0{fill:#2DAB66;}
	.st1{fill:#FFFFFF;}
</style>
<g id="Laag_1_00000064348856682081370940000011448762101504993165_">
	<g id="Laag_73">
		<g>
			<path class="st0" d="M251,39.4H19.7C8.8,39.4,0,30.6,0,19.7l0,0C0,8.8,8.8,0,19.7,0H251c10.9,0,19.7,8.8,19.7,19.7l0,0
				C270.7,30.6,261.9,39.4,251,39.4z"/>
			<g>
				<path class="st1" d="M87.7,25.1h4.7v2.7h-8.2V13.2h3.6L87.7,25.1L87.7,25.1z"/>
				<path class="st1" d="M97.7,16.1v3h4.8v2.7h-4.8V25h5.4v2.9h-9V13.2h9v2.9H97.7z"/>
				<path class="st1" d="M108.9,16.1v3h4.8v2.7h-4.8V25h5.4v2.9h-9V13.2h9v2.9H108.9z"/>
				<path class="st1" d="M119.1,27.5c-0.8-0.3-1.5-0.9-2-1.5c-0.5-0.7-0.8-1.5-0.8-2.5h3.8c0.1,0.5,0.2,1,0.6,1.2
					c0.3,0.3,0.7,0.4,1.2,0.4s0.9-0.1,1.2-0.4c0.3-0.2,0.5-0.6,0.5-1s-0.1-0.7-0.4-0.9c-0.2-0.2-0.5-0.4-0.9-0.6s-0.9-0.3-1.5-0.5
					c-0.9-0.3-1.7-0.6-2.3-0.9c-0.6-0.3-1.1-0.7-1.5-1.3c-0.4-0.6-0.6-1.3-0.6-2.2c0-1.4,0.5-2.4,1.5-3.2s2.3-1.2,3.9-1.2
					s2.9,0.4,3.9,1.2s1.5,1.8,1.6,3.2h-3.9c0-0.5-0.2-0.8-0.5-1.1s-0.7-0.4-1.2-0.4c-0.4,0-0.8,0.1-1,0.3s-0.4,0.6-0.4,1
					c0,0.5,0.2,0.8,0.7,1.1s1.1,0.5,2.1,0.9c0.9,0.3,1.7,0.6,2.3,0.9c0.6,0.3,1.1,0.7,1.5,1.3s0.6,1.3,0.6,2.1
					c0,0.8-0.2,1.6-0.6,2.3c-0.4,0.7-1,1.2-1.8,1.6s-1.8,0.6-2.9,0.6C120.9,28,119.9,27.8,119.1,27.5z"/>
				<path class="st1" d="M150.4,13.2v14.6h-3.6V19l-3.3,8.8h-2.9l-3.3-8.8v8.8h-3.6V13.2h4.2l4.1,10.1l4.1-10.1
					C146.1,13.2,150.4,13.2,150.4,13.2z"/>
				<path class="st1" d="M156.5,16.1v3h4.8v2.7h-4.8V25h5.4v2.9h-9V13.2h9v2.9H156.5z"/>
				<path class="st1" d="M167.8,16.1v3h4.8v2.7h-4.8V25h5.4v2.9h-9V13.2h9v2.9H167.8z"/>
				<path class="st1" d="M183,27.9l-3-5.5h-0.9v5.5h-3.6V13.2h6c1.2,0,2.1,0.2,2.9,0.6c0.8,0.4,1.4,1,1.8,1.7
					c0.4,0.7,0.6,1.5,0.6,2.3c0,1-0.3,1.8-0.8,2.6c-0.5,0.8-1.4,1.3-2.4,1.6l3.4,5.8h-4V27.9z M179.1,19.8h2.2
					c0.7,0,1.1-0.2,1.5-0.5s0.5-0.8,0.5-1.4s-0.2-1-0.5-1.3s-0.8-0.5-1.5-0.5h-2.2V19.8z"/>
			</g>
		</g>
	</g>
</g>
</svg>
