<?xml version="1.0" encoding="utf-8"?>
<!-- Generator: Adobe Illustrator 26.0.3, SVG Export Plug-In . SVG Version: 6.00 Build 0)  -->
<svg version="1.0" id="Laag_1" xmlns="http://www.w3.org/2000/svg" xmlns:xlink="http://www.w3.org/1999/xlink" x="0px" y="0px"
	 viewBox="0 0 270.7 39.4" style="enable-background:new 0 0 270.7 39.4;" xml:space="preserve">
<style type="text/css">
	.st0{fill:#2DAB66;}
	.st1{fill:#FFFFFF;}
</style>
<g id="Laag_1_00000000903513361704399920000001540286884867296430_">
	<g id="Laag_16">
		<g>
			<path class="st0" d="M251,39.4H19.7C8.8,39.4,0,30.6,0,19.7l0,0C0,8.8,8.8,0,19.7,0H251c10.9,0,19.7,8.8,19.7,19.7l0,0
				C270.7,30.6,261.9,39.4,251,39.4z"/>
			<g>
				<path class="st1" d="M75.3,25.1H80v2.7h-8.2V13.2h3.6L75.3,25.1L75.3,25.1z"/>
				<path class="st1" d="M85.3,16.1v3H90v2.7h-4.8V25h5.4v2.9h-9V13.2h9v2.9H85.3z"/>
				<path class="st1" d="M96.5,16.1v3h4.8v2.7h-4.8V25h5.4v2.9h-9V13.2h9v2.9H96.5z"/>
				<path class="st1" d="M106.7,27.5c-0.8-0.3-1.5-0.9-2-1.5c-0.5-0.7-0.8-1.5-0.8-2.5h3.8c0.1,0.5,0.2,1,0.6,1.2
					c0.3,0.3,0.7,0.4,1.2,0.4s0.9-0.1,1.2-0.4c0.3-0.2,0.5-0.6,0.5-1s-0.1-0.7-0.4-0.9c-0.2-0.2-0.5-0.4-0.9-0.6s-0.9-0.3-1.5-0.5
					c-0.9-0.3-1.7-0.6-2.3-0.9c-0.6-0.3-1.1-0.7-1.5-1.3c-0.4-0.6-0.6-1.3-0.6-2.2c0-1.4,0.5-2.4,1.5-3.2s2.3-1.2,3.9-1.2
					s2.9,0.4,3.9,1.2s1.5,1.8,1.6,3.2H111c0-0.5-0.2-0.8-0.5-1.1s-0.7-0.4-1.2-0.4c-0.4,0-0.8,0.1-1,0.3s-0.4,0.6-0.4,1
					c0,0.5,0.2,0.8,0.7,1.1s1.1,0.5,2.1,0.9c0.9,0.3,1.7,0.6,2.3,0.9c0.6,0.3,1.1,0.7,1.5,1.3s0.6,1.3,0.6,2.1
					c0,0.8-0.2,1.6-0.6,2.3c-0.4,0.7-1,1.2-1.8,1.6s-1.8,0.6-2.9,0.6C108.5,28,107.5,27.8,106.7,27.5z"/>
				<path class="st1" d="M135.2,13.2L130,27.9h-4.5l-5.2-14.6h3.8l3.6,11l3.6-11L135.2,13.2L135.2,13.2z"/>
				<path class="st1" d="M140.2,16.1v3h4.8v2.7h-4.8V25h5.4v2.9h-9V13.2h9v2.9H140.2z"/>
				<path class="st1" d="M155.4,27.9l-3-5.5h-0.9v5.5h-3.6V13.2h6c1.2,0,2.1,0.2,2.9,0.6c0.8,0.4,1.4,1,1.8,1.7
					c0.4,0.7,0.6,1.5,0.6,2.3c0,1-0.3,1.8-0.8,2.6c-0.5,0.8-1.4,1.3-2.4,1.6l3.4,5.8h-4V27.9z M151.5,19.8h2.2
					c0.7,0,1.1-0.2,1.5-0.5s0.5-0.8,0.5-1.4s-0.2-1-0.5-1.3s-0.8-0.5-1.5-0.5h-2.2V19.8z"/>
				<path class="st1" d="M171,14.2c1.2,0.6,2,1.5,2.7,2.6s0.9,2.4,0.9,3.8s-0.3,2.7-0.9,3.8c-0.6,1.1-1.5,2-2.7,2.6s-2.5,0.9-4,0.9
					h-5.5V13.2h5.5C168.5,13.2,169.9,13.6,171,14.2z M169.9,23.7c0.8-0.7,1.1-1.8,1.1-3.1s-0.4-2.4-1.1-3.1
					c-0.7-0.8-1.8-1.1-3.1-1.1h-1.7v8.5h1.7C168.1,24.8,169.2,24.4,169.9,23.7z"/>
				<path class="st1" d="M180.2,16.1v3h4.8v2.7h-4.8V25h5.4v2.9h-9V13.2h9v2.9H180.2z"/>
				<path class="st1" d="M195.4,27.9l-3-5.5h-0.9v5.5h-3.6V13.2h6c1.2,0,2.1,0.2,2.9,0.6c0.8,0.4,1.4,1,1.8,1.7
					c0.4,0.7,0.6,1.5,0.6,2.3c0,1-0.3,1.8-0.8,2.6c-0.5,0.8-1.4,1.3-2.4,1.6l3.4,5.8h-4V27.9z M191.5,19.8h2.2
					c0.7,0,1.1-0.2,1.5-0.5s0.5-0.8,0.5-1.4s-0.2-1-0.5-1.3s-0.8-0.5-1.5-0.5h-2.2V19.8z"/>
			</g>
		</g>
	</g>
</g>
</svg>
