<?xml version="1.0" encoding="utf-8"?>
<!-- Generator: Adobe Illustrator 26.0.3, SVG Export Plug-In . SVG Version: 6.00 Build 0)  -->
<svg version="1.0" id="Laag_1" xmlns="http://www.w3.org/2000/svg" xmlns:xlink="http://www.w3.org/1999/xlink" x="0px" y="0px"
	 viewBox="0 0 270.7 39.4" style="enable-background:new 0 0 270.7 39.4;" xml:space="preserve">
<style type="text/css">
	.st0{fill:#D50074;}
	.st1{fill:#FFFFFF;}
</style>
<g id="Laag_1_00000111873578126530826320000002093803963356955273_">
	<g id="Laag_67">
		<path class="st0" d="M251,39.4H19.7C8.8,39.4,0,30.6,0,19.7l0,0C0,8.8,8.8,0,19.7,0H251c10.9,0,19.7,8.8,19.7,19.7l0,0
			C270.7,30.6,261.9,39.4,251,39.4z"/>
		<path class="st1" d="M75.4,25.1h4.7v2.7h-8.2V13.2h3.6L75.4,25.1L75.4,25.1z"/>
		<path class="st1" d="M85.4,13.2v14.6h-3.6V13.2H85.4z"/>
		<path class="st1" d="M97.5,14.2c1.2,0.6,2,1.5,2.7,2.6c0.6,1.1,0.9,2.4,0.9,3.8s-0.3,2.7-0.9,3.8c-0.6,1.1-1.5,2-2.7,2.6
			s-2.5,0.9-4,0.9H88V13.2h5.5C95,13.2,96.3,13.6,97.5,14.2z M96.3,23.7c0.7-0.7,1.1-1.8,1.1-3.1s-0.4-2.4-1.1-3.1
			c-0.8-0.8-1.8-1.1-3.1-1.1h-1.7v8.5h1.7C94.5,24.8,95.6,24.4,96.3,23.7z"/>
		<path class="st1" d="M127.6,13.2l-3.8,14.6h-4.3l-2.3-9.6l-2.4,9.6h-4.3l-3.7-14.6h3.8l2.1,10.6l2.6-10.6h3.9l2.5,10.6l2.1-10.6
			C123.8,13.2,127.6,13.2,127.6,13.2z"/>
		<path class="st1" d="M132.5,27.1c-1.1-0.6-2.1-1.5-2.7-2.7s-1-2.4-1-3.9c0-1.4,0.3-2.7,1-3.9s1.6-2,2.7-2.7s2.4-1,3.8-1
			c1.4,0,2.6,0.3,3.8,1s2,1.5,2.7,2.7s1,2.4,1,3.9c0,1.4-0.3,2.7-1,3.9c-0.7,1.1-1.6,2-2.7,2.7s-2.4,1-3.8,1
			C134.9,28,133.7,27.7,132.5,27.1z M139.1,23.6c0.7-0.8,1.1-1.8,1.1-3.1c0-1.3-0.4-2.3-1.1-3.1c-0.7-0.8-1.6-1.2-2.8-1.2
			s-2.1,0.4-2.8,1.1s-1.1,1.8-1.1,3.1c0,1.3,0.4,2.3,1.1,3.1s1.6,1.2,2.8,1.2C137.5,24.8,138.4,24.4,139.1,23.6z"/>
		<path class="st1" d="M153.2,27.9l-3-5.5h-0.9v5.5h-3.6V13.2h6c1.2,0,2.1,0.2,2.9,0.6c0.8,0.4,1.4,1,1.8,1.7
			c0.4,0.7,0.6,1.5,0.6,2.3c0,1-0.3,1.8-0.8,2.6c-0.5,0.8-1.4,1.3-2.4,1.6l3.4,5.8h-4V27.9z M149.3,19.8h2.2c0.7,0,1.1-0.2,1.5-0.5
			s0.5-0.8,0.5-1.4s-0.2-1-0.5-1.3s-0.8-0.5-1.5-0.5h-2.2V19.8z"/>
		<path class="st1" d="M168.9,14.2c1.2,0.6,2,1.5,2.7,2.6c0.6,1.1,0.9,2.4,0.9,3.8s-0.3,2.7-0.9,3.8c-0.6,1.1-1.5,2-2.7,2.6
			s-2.5,0.9-4,0.9h-5.5V13.2h5.5C166.4,13.2,167.7,13.6,168.9,14.2z M167.7,23.7c0.7-0.7,1.1-1.8,1.1-3.1s-0.4-2.4-1.1-3.1
			s-1.8-1.1-3.1-1.1h-1.7v8.5h1.7C165.9,24.8,167,24.4,167.7,23.7z"/>
		<path class="st1" d="M178,16.1v3h4.8v2.8H178V25h5.4v2.9h-9V13.2h9v2.9H178z"/>
		<path class="st1" d="M198.8,27.9h-3.6l-6-9v9h-3.6V13.2h3.6l6,9.1v-9.1h3.6V27.9z"/>
	</g>
</g>
</svg>
