<?xml version="1.0" encoding="utf-8"?>
<!-- Generator: Adobe Illustrator 26.0.3, SVG Export Plug-In . SVG Version: 6.00 Build 0)  -->
<svg version="1.0" xmlns="http://www.w3.org/2000/svg" xmlns:xlink="http://www.w3.org/1999/xlink" x="0px" y="0px"
	 viewBox="0 0 44.5 44.5" style="enable-background:new 0 0 44.5 44.5;" xml:space="preserve">
<style type="text/css">
	.st0{fill:#FFFFFF;}
	.st1{fill:#2DAB66;}
</style>
<g id="Laag_1">
	<g id="Laag_88">
	</g>
	<g id="Laag_87">
	</g>
	<g id="Laag_86">
	</g>
	<g id="Laag_85">
	</g>
	<g id="Laag_84">
	</g>
	<g id="Laag_83">
	</g>
	<g id="Laag_82">
	</g>
	<g id="Laag_81">
	</g>
	<g id="Laag_80">
	</g>
	<g id="Laag_79">
	</g>
	<g id="Laag_78">
	</g>
	<g id="Laag_77">
	</g>
	<g id="Laag_76">
	</g>
	<g id="Laag_75">
	</g>
	<g id="Laag_74">
	</g>
	<g id="Laag_73">
	</g>
	<g id="Laag_72">
	</g>
	<g id="Laag_71">
	</g>
	<g id="Laag_70">
	</g>
	<g id="Laag_69">
	</g>
	<g id="Laag_68">
	</g>
	<g id="Laag_67">
	</g>
	<g id="Laag_66">
	</g>
	<g id="Laag_65">
	</g>
	<g id="Laag_64">
	</g>
	<g id="Laag_63">
	</g>
	<g id="Laag_62">
	</g>
	<g id="Laag_61">
	</g>
	<g id="Laag_60">
	</g>
	<g id="Laag_59">
	</g>
	<g id="Laag_58">
	</g>
	<g id="Laag_57">
	</g>
	<g id="Laag_56">
	</g>
	<g id="Laag_55">
	</g>
	<g id="Laag_54">
	</g>
	<g id="Laag_53">
	</g>
	<g id="Laag_52">
	</g>
	<g id="Laag_51">
		<g>
			<g>
				<g>
					<path class="st0" d="M44.5,22.3c0,12.3-10,22.3-22.3,22.3C10,44.5,0,34.6,0,22.3C0,10,10,0,22.3,0C34.6,0,44.5,10,44.5,22.3z"
						/>
					<path class="st1" d="M22.3,3.2c10.5,0,19,8.5,19,19c0,10.5-8.5,19-19,19c-10.5,0-19-8.5-19-19C3.3,11.8,11.8,3.2,22.3,3.2
						 M22.3,0C10,0,0,10,0,22.3c0,12.3,10,22.3,22.3,22.3c12.3,0,22.3-10,22.3-22.3C44.5,10,34.6,0,22.3,0L22.3,0z"/>
				</g>
			</g>
			<g>
				<path d="M25.7,13.9c0,0-2.1,1-4,6c0,0-0.9-1.1-3.2-2.2c-2.3-1-5.3-2.2-5.3-2.2s-0.2,1.9,2.1,3.1c0,0-1.1,0.1-1.5,0.2
					c0,0,0.2,2,2.8,2.5c0,0-1.3,0.2-1.7,0.8c0,0,0.8,1.6,3,1.5c0,0-1.2,0.5-0.8,1.4c0.3,0.8,1.8,0.7,1.8,0.7s-4.4,4.3-9.4,0.4
					c0,0,2.4,3.6,7.3,4.6c4.4,0.8,8.6-0.5,11-2.1c2.1-1.4,3.9-3.9,4.2-5.8c0,0,1.9,0.2,3.1-1c0,0-1.7,0.2-2.8-0.3
					c0,0,2.4-0.2,2.8-1.4c0,0-1.2,0.6-3,0.1c0,0-0.8-4.6-5.5-4.8c0,0,1.9-0.4,2.2-0.9c0.2-0.3-0.2-0.5-1.1-0.2
					c-0.4,0.1-0.8,0.3-0.8,0.3s0.8-0.4,0.8-0.8c0,0-0.9,0.1-1.9,0.8C25.5,14.5,25.7,14.1,25.7,13.9"/>
			</g>
		</g>
	</g>
	<g id="Laag_50">
	</g>
	<g id="Laag_49">
	</g>
	<g id="Laag_48">
	</g>
	<g id="Laag_47">
	</g>
	<g id="Laag_46">
	</g>
	<g id="Laag_45">
	</g>
	<g id="Laag_44">
	</g>
	<g id="Laag_43">
	</g>
	<g id="Laag_42">
	</g>
	<g id="Laag_41">
	</g>
	<g id="Laag_40">
	</g>
	<g id="Laag_39">
	</g>
	<g id="Laag_38">
	</g>
	<g id="Laag_37">
	</g>
	<g id="Laag_36">
	</g>
	<g id="Laag_35">
	</g>
	<g id="Laag_34">
	</g>
	<g id="Laag_33">
	</g>
	<g id="Laag_32">
	</g>
	<g id="Laag_31">
	</g>
	<g id="Laag_30">
	</g>
	<g id="Laag_29">
	</g>
	<g id="Laag_28">
	</g>
	<g id="Laag_27">
	</g>
	<g id="Laag_26">
	</g>
	<g id="Laag_25">
	</g>
	<g id="Laag_24">
	</g>
	<g id="Laag_23">
	</g>
	<g id="Laag_22">
	</g>
	<g id="Laag_21">
	</g>
	<g id="Laag_20">
	</g>
	<g id="Laag_19">
	</g>
	<g id="Laag_18">
	</g>
	<g id="Laag_17">
	</g>
	<g id="Laag_16">
	</g>
	<g id="Laag_15">
	</g>
	<g id="Laag_14">
	</g>
	<g id="Laag_13">
	</g>
	<g id="Laag_12">
	</g>
	<g id="Laag_11">
	</g>
	<g id="Laag_10">
	</g>
	<g id="Laag_9">
	</g>
	<g id="Laag_8">
	</g>
	<g id="Laag_7">
	</g>
	<g id="Laag_6">
	</g>
	<g id="Laag_5">
	</g>
	<g id="Laag_4">
	</g>
</g>
<g id="Laag_3">
</g>
</svg>
